<svg xmlns="http://www.w3.org/2000/svg" width="45.282" height="45.282" viewBox="0 0 45.282 45.282">
  <g id="icon-stop-outlline" transform="translate(1 1)">
    <path id="Vector" d="M43.282,21.641a21.641,21.641,0,1,1-6.339-15.3A21.641,21.641,0,0,1,43.282,21.641Z" transform="translate(0)" fill="none" stroke="#fff" stroke-linecap="round" stroke-linejoin="round" stroke-width="2"/>
    <path id="Subtraction_3" data-name="Subtraction 3" d="M14.367,17.241a2.873,2.873,0,0,1,5.747,0V28.735a2.873,2.873,0,0,1-5.747,0Zm14.367-2.873a2.873,2.873,0,0,0-2.873,2.873V28.735a2.873,2.873,0,0,0,5.747,0V17.241a2.873,2.873,0,0,0-2.873-2.873Z" transform="translate(-1.346 -1.346)" fill="#fff"/>
  </g>
</svg>
