<svg id="icon-volume-up" xmlns="http://www.w3.org/2000/svg" width="15" height="15" viewBox="0 0 15 15">
  <g id="volume-up">
    <path id="Vector" d="M6.283.33a.749.749,0,0,1,.462.693v8.994a.749.749,0,0,1-1.279.53L2.688,7.767H.749A.749.749,0,0,1,0,7.018v-3a.749.749,0,0,1,.749-.749H2.688L5.466.492A.749.749,0,0,1,6.283.33Zm3.953-.11a.749.749,0,0,1,1.06,0,7.489,7.489,0,0,1,0,10.6.749.749,0,0,1-1.06-1.06,6,6,0,0,0,0-8.48.749.749,0,0,1,0-1.06Zm-2.12,2.12a.749.749,0,0,1,1.061,0,4.495,4.495,0,0,1,0,6.36A.75.75,0,0,1,8.115,7.639a2.993,2.993,0,0,0,0-4.239.749.749,0,0,1,0-1.061Z" transform="translate(0.749 1.976)" fill="#f3f4f6"/>
  </g>
</svg>
