<svg width="25" height="26" viewBox="0 0 25 26" fill="none" xmlns="http://www.w3.org/2000/svg">
<path d="M8.75 4.25C8.41848 4.25 8.10054 4.3817 7.86612 4.61612C7.6317 4.85054 7.5 5.16848 7.5 5.5C7.5 5.83152 7.6317 6.14946 7.86612 6.38388C8.10054 6.6183 8.41848 6.75 8.75 6.75H16.25C16.5815 6.75 16.8995 6.6183 17.1339 6.38388C17.3683 6.14946 17.5 5.83152 17.5 5.5C17.5 5.16848 17.3683 4.85054 17.1339 4.61612C16.8995 4.3817 16.5815 4.25 16.25 4.25H8.75ZM5 9.25C5 8.91848 5.1317 8.60054 5.36612 8.36612C5.60054 8.1317 5.91848 8 6.25 8H18.75C19.0815 8 19.3995 8.1317 19.6339 8.36612C19.8683 8.60054 20 8.91848 20 9.25C20 9.58152 19.8683 9.89946 19.6339 10.1339C19.3995 10.3683 19.0815 10.5 18.75 10.5H6.25C5.91848 10.5 5.60054 10.3683 5.36612 10.1339C5.1317 9.89946 5 9.58152 5 9.25ZM2.5 14.25C2.5 13.587 2.76339 12.9511 3.23223 12.4822C3.70107 12.0134 4.33696 11.75 5 11.75H20C20.663 11.75 21.2989 12.0134 21.7678 12.4822C22.2366 12.9511 22.5 13.587 22.5 14.25V19.25C22.5 19.913 22.2366 20.5489 21.7678 21.0178C21.2989 21.4866 20.663 21.75 20 21.75H5C4.33696 21.75 3.70107 21.4866 3.23223 21.0178C2.76339 20.5489 2.5 19.913 2.5 19.25V14.25Z" fill="white"/>
</svg>
