<svg id="cog" xmlns="http://www.w3.org/2000/svg" width="17.987" height="17.987" viewBox="0 0 17.987 17.987">
  <path id="Subtraction_1" data-name="Subtraction 1" d="M-2192.255,2970.739a1.681,1.681,0,0,1-1.674-1.316,1.732,1.732,0,0,0-.365-.715,1.726,1.726,0,0,0-.65-.471,1.722,1.722,0,0,0-.66-.131c-.044,0-.089,0-.133.005a1.719,1.719,0,0,0-.763.247,1.717,1.717,0,0,1-.9.263,1.771,1.771,0,0,1-1.511-.908,1.664,1.664,0,0,1,.045-1.722,1.732,1.732,0,0,0,.248-.764,1.734,1.734,0,0,0-.126-.792,1.727,1.727,0,0,0-.472-.65,1.729,1.729,0,0,0-.715-.365,1.68,1.68,0,0,1-1.316-1.673,1.681,1.681,0,0,1,1.316-1.675,1.706,1.706,0,0,0,1.186-1.016,1.7,1.7,0,0,0-.121-1.556,1.665,1.665,0,0,1-.044-1.723,1.77,1.77,0,0,1,1.51-.908,1.716,1.716,0,0,1,.9.263,1.735,1.735,0,0,0,.763.246c.044,0,.088.005.132.005a1.727,1.727,0,0,0,.661-.131,1.746,1.746,0,0,0,.649-.472,1.735,1.735,0,0,0,.365-.715,1.682,1.682,0,0,1,1.675-1.315,1.683,1.683,0,0,1,1.675,1.315,1.716,1.716,0,0,0,.365.717,1.726,1.726,0,0,0,.649.471,1.729,1.729,0,0,0,.661.131c.044,0,.089,0,.132-.005a1.747,1.747,0,0,0,.764-.247,1.715,1.715,0,0,1,.9-.263,1.769,1.769,0,0,1,1.509.907,1.665,1.665,0,0,1-.044,1.723,1.726,1.726,0,0,0-.247.764,1.71,1.71,0,0,0,.126.792,1.718,1.718,0,0,0,.471.65,1.729,1.729,0,0,0,.715.365,1.68,1.68,0,0,1,1.316,1.673,1.681,1.681,0,0,1-1.316,1.675,1.727,1.727,0,0,0-.714.365,1.74,1.74,0,0,0-.472.65,1.734,1.734,0,0,0-.126.792,1.753,1.753,0,0,0,.247.764,1.665,1.665,0,0,1,.045,1.722,1.77,1.77,0,0,1-1.51.908,1.716,1.716,0,0,1-.9-.263,1.738,1.738,0,0,0-.764-.246c-.043,0-.089-.005-.135-.005a1.7,1.7,0,0,0-.657.131,1.724,1.724,0,0,0-.65.471,1.729,1.729,0,0,0-.365.714A1.68,1.68,0,0,1-2192.255,2970.739Zm0-12.365a3.35,3.35,0,0,0-2.385.987,3.351,3.351,0,0,0-.988,2.385,3.351,3.351,0,0,0,.988,2.385,3.355,3.355,0,0,0,2.385.987,3.4,3.4,0,0,0,2.384-.987,3.351,3.351,0,0,0,.988-2.385,3.351,3.351,0,0,0-.988-2.385A3.347,3.347,0,0,0-2192.255,2958.373Z" transform="translate(2201.249 -2952.751)" fill="#fff"/>
</svg>
