<svg id="collection" xmlns="http://www.w3.org/2000/svg" width="22.484" height="22.484" viewBox="0 0 22.484 22.484">
  <path id="Vector" d="M5.621,0a1.124,1.124,0,0,0,0,2.248h6.745a1.124,1.124,0,1,0,0-2.248ZM2.248,4.5A1.124,1.124,0,0,1,3.373,3.373H14.615a1.124,1.124,0,0,1,0,2.248H3.373A1.124,1.124,0,0,1,2.248,4.5ZM0,8.994A2.248,2.248,0,0,1,2.248,6.745H15.739a2.248,2.248,0,0,1,2.248,2.248v4.5a2.248,2.248,0,0,1-2.248,2.248H2.248A2.248,2.248,0,0,1,0,13.491Z" transform="translate(2.248 3.373)" fill="#fff"/>
</svg>
