<svg id="home" xmlns="http://www.w3.org/2000/svg" width="22.484" height="22.484" viewBox="0 0 22.484 22.484">
  <path id="Vector" d="M10.1.388a1.583,1.583,0,0,0-2.076,0l-7.32,6.5a2.133,2.133,0,0,0-.524.706A2.019,2.019,0,0,0,0,8.435v7.906a2.066,2.066,0,0,0,.664,1.5,2.343,2.343,0,0,0,1.6.623H4.533c.6,0,2.267-.016,2.267-.016s0-1.548,0-2.113V12.791a.689.689,0,0,1,.221-.5.781.781,0,0,1,.534-.208h3.022a.781.781,0,0,1,.534.208.689.689,0,0,1,.221.5V16.34c0,.565,0,2.113,0,2.113s1.665.016,2.267.016h2.267a2.343,2.343,0,0,0,1.6-.624,2.066,2.066,0,0,0,.664-1.506V8.434a2.019,2.019,0,0,0-.185-.842,2.134,2.134,0,0,0-.525-.7L10.1.385Z" transform="translate(2.176 2.044)" fill="#fff"/>
</svg>
