<svg xmlns="http://www.w3.org/2000/svg" width="19" height="19" viewBox="0 0 19 19">
  <g id="icon-onlike" transform="translate(-2391 3224)">
    <g id="icon-onlike-2" data-name="icon-onlike" transform="translate(2393 -3221)" fill="none" stroke-linecap="round" stroke-linejoin="round">
      <path d="M1.1,1.144a3.747,3.747,0,0,1,5.3,0l1.1,1.1,1.1-1.1a3.747,3.747,0,1,1,5.3,5.3l-6.4,6.4-6.4-6.4a3.747,3.747,0,0,1,0-5.3Z" stroke="none"/>
      <path d="M 11.28747272491455 1.000002861022949 L 11.26354217529297 1.000102996826172 C 10.89682197570801 1.003293037414551 10.5400333404541 1.078303337097168 10.20304298400879 1.223062515258789 C 9.866092681884766 1.367793083190918 9.566052436828613 1.574942588806152 9.311252593994141 1.838752746582031 C 9.307132720947266 1.843023300170898 9.302972793579102 1.84725284576416 9.298772811889648 1.851443290710449 L 8.200782775878906 2.948493003845215 C 7.810332298278809 3.33861255645752 7.177633285522461 3.33861255645752 6.787172317504883 2.948493003845215 L 5.689002990722656 1.851243019104004 C 5.170123100280762 1.332523345947266 4.480302810668945 1.046853065490723 3.74659252166748 1.046853065490723 C 3.012882232666016 1.046853065490723 2.323062896728516 1.332523345947266 1.804402351379395 1.851033210754395 C 1.285672187805176 2.369913101196289 1.000002861022949 3.05974292755127 1.000002861022949 3.793442726135254 C 1.000002861022949 4.527142524719238 1.285672187805176 5.216972827911377 1.804342269897461 5.735793113708496 L 7.493982791900635 11.42625999450684 L 13.18362236022949 5.735793113708496 C 13.18774223327637 5.731682777404785 13.1918830871582 5.727602958679199 13.19607257843018 5.723562717437744 C 13.45986270904541 5.468782901763916 13.66701316833496 5.168742656707764 13.81177234649658 4.83176326751709 C 13.95652294158936 4.494792938232422 14.03153228759766 4.137992858886719 14.03472232818604 3.771272659301758 C 14.03790283203125 3.404522895812988 13.96910285949707 3.046472549438477 13.83023262023926 2.707042694091797 C 13.69135284423828 2.367612838745117 13.48945236206055 2.06401252746582 13.23014259338379 1.804702758789063 C 12.97080230712891 1.54536247253418 12.66720294952393 1.343452453613281 12.32779312133789 1.204592704772949 C 11.99593353271484 1.068829536437988 11.64459609985352 0.9986181259155273 11.28747272491455 1.000002861022949 M 11.28747177124023 9.5367431640625e-07 C 11.77402019500732 -1.049041748046875e-05 12.25593757629395 0.09473800659179688 12.70644283294678 0.279052734375 C 13.16698265075684 0.467473030090332 13.58538246154785 0.7457332611083984 13.93724250793457 1.097582817077637 C 14.28909301757813 1.449442863464355 14.56734275817871 1.867842674255371 14.75576305389404 2.32838249206543 C 14.94419288635254 2.788923263549805 15.03900241851807 3.282382965087891 15.03468227386475 3.779953002929688 C 15.03036308288574 4.277532577514648 14.92698287963867 4.76926326751709 14.73058223724365 5.226462841033936 C 14.53418254852295 5.683662891387939 14.24870300292969 6.09716272354126 13.89078235626221 6.442852973937988 L 7.493982791900635 12.84058284759521 L 1.097182273864746 6.442852973937988 C 0.3946628570556641 5.740112781524658 2.86102294921875e-06 4.787113189697266 2.86102294921875e-06 3.793442726135254 C 2.86102294921875e-06 2.799773216247559 0.3946628570556641 1.846773147583008 1.097182273864746 1.14403247833252 C 1.799922943115234 0.441502571105957 2.752923011779785 0.04685306549072266 3.74659252166748 0.04685306549072266 C 4.740272521972656 0.04685306549072266 5.693263053894043 0.441502571105957 6.396002769470215 1.14403247833252 L 7.493982791900635 2.241083145141602 L 8.591972351074219 1.14403247833252 C 8.937662124633789 0.7861232757568359 9.351161956787109 0.5006332397460938 9.80836296081543 0.3042430877685547 C 10.26555252075195 0.1078424453735352 10.75729274749756 0.00446319580078125 11.25486278533936 0.0001430511474609375 C 11.26570510864258 4.863739013671875e-05 11.27663326263428 9.5367431640625e-07 11.28747177124023 9.5367431640625e-07 Z" stroke="none" fill="#fff"/>
    </g>
    <rect id="Rectangle_3" data-name="Rectangle 3" width="19" height="19" transform="translate(2391 -3224)" fill="none"/>
  </g>
</svg>
