<svg id="icon-headphones" xmlns="http://www.w3.org/2000/svg" width="15" height="15" viewBox="0 0 15 15">
  <path id="Vector" d="M4.216,6.745H3.794A1.688,1.688,0,0,0,2.108,8.435v1.68A1.688,1.688,0,0,0,3.794,11.8h.422a.844.844,0,0,0,.843-.845V7.59A.844.844,0,0,0,4.216,6.745Zm5.481,0H9.275a.844.844,0,0,0-.843.845V10.96a.844.844,0,0,0,.843.845H9.7a1.688,1.688,0,0,0,1.686-1.689V8.435A1.688,1.688,0,0,0,9.7,6.745ZM6.745,0A6.874,6.874,0,0,0,0,6.745V9.7a.421.421,0,0,0,.422.422H.843A.421.421,0,0,0,1.265,9.7V6.745a5.481,5.481,0,0,1,10.961,0V9.7a.421.421,0,0,0,.422.422h.422a.421.421,0,0,0,.422-.422V6.745A6.874,6.874,0,0,0,6.745,0Z" transform="translate(0.749 1.593)" fill="#fff"/>
</svg>
