<svg width="60" height="60" viewBox="0 0 60 60" fill="none" xmlns="http://www.w3.org/2000/svg">
<path fill-rule="evenodd" clip-rule="evenodd" d="M54 30C54 36.3652 51.4714 42.4697 46.9706 46.9706C42.4697 51.4714 36.3652 54 30 54C23.6348 54 17.5303 51.4714 13.0294 46.9706C8.52856 42.4697 6 36.3652 6 30C6 23.6348 8.52856 17.5303 13.0294 13.0294C17.5303 8.52856 23.6348 6 30 6C36.3652 6 42.4697 8.52856 46.9706 13.0294C51.4714 17.5303 54 23.6348 54 30V30ZM21 24C21 23.2044 21.3161 22.4413 21.8787 21.8787C22.4413 21.3161 23.2044 21 24 21C24.7956 21 25.5587 21.3161 26.1213 21.8787C26.6839 22.4413 27 23.2044 27 24V36C27 36.7956 26.6839 37.5587 26.1213 38.1213C25.5587 38.6839 24.7956 39 24 39C23.2044 39 22.4413 38.6839 21.8787 38.1213C21.3161 37.5587 21 36.7956 21 36V24ZM36 21C35.2044 21 34.4413 21.3161 33.8787 21.8787C33.3161 22.4413 33 23.2044 33 24V36C33 36.7956 33.3161 37.5587 33.8787 38.1213C34.4413 38.6839 35.2044 39 36 39C36.7956 39 37.5587 38.6839 38.1213 38.1213C38.6839 37.5587 39 36.7956 39 36V24C39 23.2044 38.6839 22.4413 38.1213 21.8787C37.5587 21.3161 36.7956 21 36 21Z" fill="white"/>
<path d="M30 52C17.8497 52 8 42.1503 8 30H-8C-8 50.9868 9.01318 68 30 68V52ZM52 30C52 42.1503 42.1503 52 30 52V68C50.9868 68 68 50.9868 68 30H52ZM30 8C42.1503 8 52 17.8497 52 30H68C68 9.01318 50.9868 -8 30 -8V8ZM30 -8C9.01318 -8 -8 9.01318 -8 30H8C8 17.8497 17.8497 8 30 8V-8Z" fill="white"/>
</svg>
