<svg id="spotify-logo" xmlns="http://www.w3.org/2000/svg" width="44.969" height="44.969" viewBox="0 0 44.969 44.969">
  <path id="Spotify_Logo" data-name="Spotify Logo" d="M22.484,0A22.484,22.484,0,1,0,44.969,22.484,22.485,22.485,0,0,0,22.484,0ZM32.8,32.429a1.4,1.4,0,0,1-1.928.465c-5.279-3.225-11.925-3.955-19.751-2.167a1.4,1.4,0,0,1-.624-2.733C19.057,26.036,26.4,26.879,32.331,30.5a1.4,1.4,0,0,1,.464,1.928Zm2.752-6.123a1.753,1.753,0,0,1-2.411.579c-6.044-3.716-15.256-4.792-22.405-2.622a1.753,1.753,0,1,1-1.019-3.354C17.878,18.431,28.03,19.631,34.97,23.9a1.752,1.752,0,0,1,.577,2.41Zm.236-6.375c-7.247-4.3-19.2-4.7-26.121-2.6a2.1,2.1,0,1,1-1.221-4.025c7.942-2.411,21.145-1.945,29.488,3.008a2.1,2.1,0,1,1-2.145,3.617Z" fill="#1ed760"/>
</svg>
